<mxfile host="65bd71144e">
    <diagram id="atgK7vDszakhiZhh_kF-" name="Page-1">
        <mxGraphModel dx="565" dy="607" grid="0" gridSize="10" guides="1" tooltips="1" connect="1" arrows="1" fold="1" page="1" pageScale="1" pageWidth="1100" pageHeight="850" background="#ffffff" math="0" shadow="0">
            <root>
                <mxCell id="0"/>
                <mxCell id="1" parent="0"/>
                <mxCell id="4" style="edgeStyle=none;html=1;entryX=1;entryY=0.5;entryDx=0;entryDy=0;strokeColor=#0d0d0d;fontFamily=Times New Roman;fontColor=#050505;" parent="1" source="5" target="11" edge="1">
                    <mxGeometry relative="1" as="geometry"/>
                </mxCell>
                <mxCell id="5" value="Client" style="sketch=0;outlineConnect=0;fontColor=#232F3E;gradientColor=none;strokeColor=#232F3E;fillColor=#ffffff;dashed=0;verticalLabelPosition=bottom;verticalAlign=top;align=center;html=1;fontSize=12;fontStyle=0;aspect=fixed;shape=mxgraph.aws4.resourceIcon;resIcon=mxgraph.aws4.client;" parent="1" vertex="1">
                    <mxGeometry x="835.5" y="524.5" width="60" height="60" as="geometry"/>
                </mxCell>
                <mxCell id="6" value="Node-js" style="outlineConnect=0;dashed=0;verticalLabelPosition=bottom;verticalAlign=top;align=center;html=1;shape=mxgraph.aws3.android;fillColor=#8CC64F;gradientColor=none;fontColor=#0a0a0a;" parent="1" vertex="1">
                    <mxGeometry x="698.5" y="405" width="34" height="42" as="geometry"/>
                </mxCell>
                <mxCell id="7" value="Vite JS" style="shape=image;verticalLabelPosition=bottom;labelBackgroundColor=none;verticalAlign=top;aspect=fixed;imageAspect=0;image=data:image/png,iVBORw0KGgoAAAANSUhEUgAAAHsAAAB+CAYAAAAECm7MAAAAAXNSR0IArs4c6QAAAARnQU1BAACxjwv8YQUAAAAJcEhZcwAADsMAAA7DAcdvqGQAAGFKSURBVHhenb0LrH3ZWdi377mP/9hOcezxK8SmJFHrCgxJHJCTKGkkIoVHW1qRNNCHKpRKVSuVoFgkhTZtVbWK+lKlVpXalCACaZW2SYzNs1IhgB0bY/B4sI1nxgNmwA/AM2OP5/2/95x7+/v9vr3v/87fM9TtPmeftda3vvV93/oea6299j7nHL3tj37b1eXVs8vV0eWyXC3L0QnJfiHDSXkyc1xdXS1HFHdUXAafOsDBzVwd7QZw4zg+Plou99at8CuQeR/zcQBEDbmh5SGfiqJD+LrZAIIfn9DWxuGBowAgxlrwTjkGLr1dAh4tuxNkP+xWOGUJ+BY/Yhy1N39Mu91yeYl81CtjGNES3yx0hAuDz9HueLm63Fe+rJ/wBi4vix2W0eCCzo8upUkeyEEE6i7V7tpmOT5gD05k8jyC3mUFy3yQOT7a17aiPMrEGp5D0/7sDlfP0PgglGa8MLTp8fEQleDl1eU1Yalht+gN3DwpCkmIS/LhWT+I+4Mwu8ABn+iCf2E7QZY5r+kBq1NSEm4angQkgWIwdNCU7WsU1rEpFWVao/9teJd7nQBTBVPhwlfaakduNcDrOVS4htPYI+dw0Xls6WdGs+IYehGSh86hoXEWbXZ0DDzsZYduT2x/hTMZCPBD49GNHHWL+IpxML9bTu+hdid/2oUTuAYH6JgqWQYGJz1LUZl9oW8kAoFWoirK9jqgFL26jvaSQdQHTra4oMLy8Yq3O5akzJR1basOrBMuvpUb3fp0jbkot7yuLoWuNUaZTXpN6lEZmmJZuipKeCmUB4pO1vxAmEJbb7QeIfNJuJKvje0RiC5ABQMpC5mhYd0JTsLpK5Y4hHWUjaCjK+gZQeKcgEAq8WMIIQr80BPGtY3GlZ7pTsdKDmhFzzFPCUYe6e8v5GvZvoi31a9p9pY2b3kKo8Wx9hBo9df/sb9wZZTogXkOwEui85JgR3uiFEk2zGshaCQPAZkJdphRsfgSjFK6cJtzSFP8GR0m73v9IKIP5BRKXF7g1YmcA5qk1lsX+OSw7PYoKnGgy2uoii8RK0Yh1h4dg8voorHDPyF/iWHA26El+Z0enWLrCF7zU2niOwwfMo7QE/AOyy3wHZkMFk8NJX0FSM4R5EbZOvBI9gf6Cw9rrzD+0f5CtsvB6NsdqKcGZwdSW+krf3qW3joSDwdspT0k5uhG5gg6Ot8J9jzS0SQBMv3AC+wUnuHcpCBXMKuSDpwYeTqClAX2RvGnGjxROFCERga/IWSQcXwwpwkf0gRG4VjhA65w6M2capkSUdGweUqe1G4dIbg4nYfjhj7pRTAK1KdQeSC3NJSOehVVxDkykx47fJpdvd7We5zqUmh0jVzpzHmVPOSVRTnI79e0QKVdc+N6+ho6tierQcG14Dy+c0SJPnwILAhhg9HBBA04a6SCMoYl41RwRvnYEUTca+1j0FP7b3tGZWCYEmc8Ws6b7+ULG81+REcPMD0cmLCJym0OPtD9vUHAy/JE9HjT0cUxcwUw4ZQdCnQWszPP8mJyF3RQsBWu4Oc4VE3io7jSBtcOCndRYCReIJM8fFFU0c736ufI0YfFVjSjsENeO0Z/iPyDC0LrVBROl1yw3aaYFGBfLTDXquzoKHBHqoGfeLabCLE2lrXNTqQS12mRIhwXTUYiZa0Frsja2y4qwnLqSLE5ut3lQzjlU/qF1Noa5ExoBWS0B3Lt0L90qVduODE6aGRbiY9jpFvkYs5vTQY6zun8BYE66epTUafjNpVjHhhnG0JYRhzNMUoK3Kiu7PQjRAWFBFVI2zx94uXHDKuRtroOr4rTJeXHi+alw4sUPuJYPjEijQw6OFSGmN7uSNB8aD2RcHJKe/o2yqEOPCO4qIsgeSJF5QChvTqwLXXQkp5rDQ0DJlFK2UgSgXMv1Dl6d0YDRhwMYeTiPtFJm8ghPztgO6P2CGcMZvf8MC9lKveHU4HAoAvcUWwO6QAGT7WbGgzRUTaSTa6D/aL+iIhvSsboOKLzgF4IAG3rDA5NYM6HAqKIVtZC8nR9aWDWzTGOMKv5O80nAuol9QBA3y7zVF+mbs62HnyFB+kID2lacP5COUaJizbbiTMR7ekBvpFBy8CuYOElpf2FuORRQJHGy6iraQoRzyFPC5DhuGJOHj7SMYqKx2nCZZtz+1njt61xXCsQXvF0HL0oqhnJU0eyUjoWKWHUgw6p4/A5zqiDyE/aOhq45M9qa8HUOtlNGykogG2aQo3imgkHj4BQJ47ezjwx9Chl8ZL5VuRoSZKhMMK8i2DbWUwIGQs3DStDpSzfKls5VzyrxJtRRLRVQdbxYdvLdfhyXtR407FYUTedc66Kn0pcPbS5VtlM40PekUC8QgqjYBXnX/txQkCq+BPgyU/+aDlFBulM+5QJfWnrE0piRBvh9YPItv5YmdGoMIArT/GgIZkEmnYaoLWQfYzRpJc4T7zJN3UwxRiljTAB5cnp1ORBXTJGQ52iSwvAxrYzmpmnPZ1vfCdlztZz6xzCFLUTbjXb8I6OLoJ1hGfUGUGTt0n0rITEYY0k5xzndb1NQLSES9c6vFJHO7o8bxqwvTTtS+2NMlLeTLOOSTNHR8s6Ko+P9+WTSR9WQQYq0XRqqMRAg6pcaFwYqRhPh1Gp5BsBarv2SX4qzwztNaDVl5eucQCeOpzZJwdvKdtUg8GPVJal9E+HcGSYMU1Mc+Y1CinTQIyUB8FPWIzunBrAsC/bKn4udYMy9NtBZSexVlT7sApsXrydStDDZ+XrXAQ0AWigkiXqrhNzTBFN+ZKhynoP8W2SNwNVSSps50igYI4dRct4cmiVps3pyx3iKONkzm0eV7tbGMauhBQdj65X1/aXTGtFLXOSRzypu0Q50jV/rOOKLy2yBxd90ZWjSpv+uKjSmEcagvwRlyD4SwZ1hDCiD44GykJevAPnyS1Wxw5KXANHEfl1HDdMPNI1WduYHnt511iq3qS3nrxyMCrkWwS3LpmrDlfotgeZSt7wbB5eYbhEVR5jhyl4GeyVlsVZa3AUMa1eAXJukQGnYFd4f40p5DkckTOLdkw89eFWuHTIuVu+Guqya8QViRP5S4WdPzOebZWWlK5jwkEL2EeSIl8o6YHItf0VRpXj0X6M4GXU8A6c0TwFiBl/8DRU3HQskhSZBoWRFUjDDMCQaBodjs0xus5FjkuuSC6cqDnubAVP5E7nV3mqIiOMvPS2lbggP0q9HDHjW3tQn+EFJMmkV65JzIlnaucC+TFRvI1ebqNqaC8/dStJ3kFm7hmPExUIIPNun+rhw9zOiae4a1OwXQV3KMwAORjaoicfcEila+pIYYU0C2qbcSJbHXfR5dDftbYVNDxlpWrZgp1geqUZkWYkntnBU3AHnwECx8BJImp7mNC2ORZY8ibDMJ/5VWriDw4fQ0u9yFV02h8rX5dA1g8/6/04sm6dus5yYNrXaWByBXdMkguTGzmMREcHr6OjYxDSxztylPThXsVk1YXn1JULCYYanHxsSRnWh6HaN6K7xm01CtxTN3QznqQIC05j4C6UEh/GDDiVNW6M/CS8HYamnTMQAlvljh3yuOqVuztHeqv5SKSooddUQOopXfeVL12hpyKinMhuvtYxWHlvcjl1LOeILs8cBzyVgYHq58pn9OKcO3RUl1UMEytf2kNrpwOjhxyBPo44ygyNwp3hdJ1br7pOxlnQvH2Wb5F/SskRqEWE46AHSCfA9SJ4GqUO9cnF6RrHrgxDQYxUlHdOaUH4BA8pS7fFnbtnWcc+rpjqnMrNM8aLvMQRtM3RRqqXZFED3s5Y3SKvYAjqZrzleuaCkMOVYR49NTG12lJ3kiIKLZA8R2BwDq4JgCtEvUbPRffMlcKU6/LSCDDvIsYhzzpF1HDSWhW74oszK3/L8pz+uUfNpxypV9ETaeGJQx8cratPMnhogNpSMVZbF1+AWSvoKDkqVzdS7u1NGPutgmi77T/MVIScyScXOXhOTh9s8ImI+oEP6JYTk9HNPgepgfGUgNmjLEddMPL0gDsRJAPhU57uCeRUIKKf2KioY1zP8ZuOCBSVYccFO6S5q1Xkw8p2CuF+81x+IVBuBy7w8OIrnh+ODoJ0xIHnOObE5fAzRYu7jgzhX52x+HQ40xkoqyTw3Hq8Qgt5P0ejfFVjUI+TLjdlIQ6jEE4Yv7HZYClvNGiFsTPwtePyyXpnozeHBhVfOSEkfrxVGGBQE9EqachHHalnqYosWlblVNFdDMhRHB1EQowyjCJNvXumBtAIBqqjPMrI0yUiHfMZQcMK42wIhlgofSwnzWcOlRpKmHPo0Ime0Yhid66cKTeEO3QpNeXTU3hDclaO1iMw+a1Dx3p9tIBzNoaIJwy8Fc1S6T3HZ8DEEt/ODh+NP+sOjIbTek9cGs5/TAjhKtzsiGEMRziadjVB+KhK28lE3VSrI5Ozz44WgnbjdXSSk/BVLlWwAUfOrf+WoVygoFtTXskaniVpW1odQz42tU9eJa14cA7unS4+14CdNo6IuheErzAYV626PXT09okgUtrNkEheRsDd8Ci2jT7KTvNCQuOjkcL2DtPgNGfrfa7qK4OHt8lBVHe5hJ1z3Wrg8I5nq0wUoKDbiGOluLazPWIMGPxGIVhczJxTuKoCW24jggjN2XT10j16lNIdLRVJKZ1J2ctNkHJA+Sm3+WrlZcriE8VK2dbuJ2iHOK31ToHVlyq0dEnNFpKCMLwrTA7XFsrgnHu51o9k0DbIvClTMEBzdYyu7rUPLx1D+3iN3VZ0tpKuqjRng71oGCDtQKKOAUNJDYErAUC+p6zXwVCHOdhLwzNPjQiRjJjij1Qd45UBR+gNjpFOZmk95T4pUFF0FlFAikwk3bHqLgqFA1vvlEVeYvRmrutHmq1dZdcSigCODRhzgElTo1sCjGMW3SpSPtKrH6RRJAutbg+nBOR3WqgKbFUV400fOgL6gOZpkTc9dEivibpF124rlWVeHvloM0RFYqHoYo6sl2kpVxxwKTdC53ycyOwNE+k3fY1MJOC4jix6igBSvF8W0s2rOa0WYGR5hu8qde2QXql/6aOWXWErmJHU3izM67Av4B6TIkhzkmXy610f4YNghzGfglIfD2geY2Dl2Bnm+pmkoFPnxeWQ3mxk6P0Dc/iWw/EJzmV9Vx8iW4TKaimN3739irYhXeW3ng89lJLMpT3yWtb5xU0PMwtnG3W2h6ZR1yF/22lYnRSwdbMOsEHv9YCZMOpbSErQg5FhC6JmPPVBfraTx1aWd6csXmR4cnaFx+EdeF5R5GljsJ3nJoIEyayq+QAORh3xw/nqNGEow9O0odCinSGv0TZy0vPV26HJjro6lS6wTR5lCJ1UI1j2aRoHg8uuiamEvrinZ9Pey5PwUVIr0oRSuVxCUe8wLo6RaSqRY70KOt7Hb3eR9hnaCFSJyqlhJWXi6AEHj3EC621naRzTa/TdsSYVIsoExXEDmfBxBCmc5sDU4fBS1rBV9SHGHX3pEt208UAmdeDIIX/zrdgR6Uy9qvr9BT4E9IJr0gvSK+82FboaB3KmlJ1/BVdnn5RObxKnyFpTjna4Le8uotMBvva1vdfK6tQPSWyjRs2F89F8bw6g0eCQ3Lwc/1VtZJ2LTGu7OoRrgPhf0/DDtxnaemknimDwdDBrJJlJKOwZldBKvDMEBiuNN20c0ZSlQQFK4q39lpir56ITfB8TOIBvP6tb8Q/npvZrym7SXOwjmCOrR2+wNNoA62Pe6U2BcenSa7mulTjyjGNJH/XgvBNpmt5mugPZGlrmnCGHZnnMeJYdz3ykDos34bO0tOQdnOl/py0wSCxWD4wOZ5cXdMwgka4R6THz5bTNOymLFtQ6eJU3csyT9YaHtJ1DjcJ4GYFWOkSvF7gnwo1oN10QxPPYhwalR/9PHBnAi0M3b6a/8yyd+jG17L3stRwK6VYeyQua0Zf0rR28mbPB01k0PPJatmWnTnBdmgQqk+Hokqs1g2XpIzejg341+nUMmd3A2hmRW1TKsKEHRSqQyC7f23xPIIB11DrLeKjL8SqqCrY2pmxHGZZSIvirzEaUDmC7YzceyOt5zvsST/l2nHQWKI5JI8MeWW06PHiL552RJD/p6kAV7jFmO2k5H9UqRqOn+PH7BCKiUE/5pgb5g3upE/C6hI5KTbQYh0AL9EL2csewSN6B10hVCutyXuUHMlukHJSPufKhBuiUO2g6vRJbna/GRydXR1wYtqgbLu47ao+O7FaHktljjwLMZqXom0NWSaRUYSuCO0HSECRyL8rbXBtRThdGa200xVcp4vXclQIDbGvP/V4xgIlv57wz5p67Ct4EnVQmiUrq82TMqZzD11GIvFFpZJsCNz07voe6ad8WJ3nYkdcMwNQlsGnvvA+PAbJIo130qG94IS8pI0+vJH+c4kPvVPEaRYe8I69vX5RR+rbBYtCoXafJy3WHUHxNq856DlBIrCSiDjSjgaA93CzQHQavaYRDexiYBsPuylvPHrbnrR1W/dgl7KUX8oJJBiYdrxLKUe9Y0nCJ0fUpBpo5HCPZBrwGkbUdH7wRikr3vCXcapxO+zrl7IF2aYjTJQY8lNr2rth3XN8CsqgQ9utqvQeu0XQxhb3q8kOwbV1znI/yUag0Z76nypOOi9qwbp86bS/e8HFVa0HDyGfaK58EbAtdTlF9CrQcbw3SeqLRB+jKt61adDp4SGTDWFgePfmUjvjO6TUKbiqNTQ7K0rG9sHDGeS5RVGsT6nQHeTQeqZP4jjzeKWLdo1pUpB5vam6O4MlgR8yDg7c6JHUnC0EEawenQhUpji/lOjlxJ4oS7WcpcMSS57jVunhXzjXydBRQdlfFzZ8+zAi2HqtnxoDqyJM3ylUDWWEz/w9C0e5crcRGsPJYR4e7g8QAE13peJDOXTCzfFA316W2F0hT23PoZPbLQycV6mrY/kqtT5RrWnvL9tXI9JW17egY0jZeFw+2e3jAwQmuUSm79Wt5qNnHesbpQdv11iWa7pOPOMw4akvg6dmcsvhSSACmXpdaOx5l04o11vA+5HZYhR35x6epBIDAvKTlpY2g6YBtB39wJy8NI5xshzcEiiwr4XVyBr02B+i6NwAgcrRXWY4ngyNhOTR92CXLK+05kFWHAOblnzE5DiDORLDHbLGSqlPnekvg5MjDIX5oKLzuuTc9jQHF9Vy1wWF78L08ciUsH+qLXGlJ1SqAdZdzbg55AlNmyvP8jm0GzylHadJpq35dRaOL4YtVPfkhOBCPgtlumelOFKkbHCrdfMt+zvkmA4glk4+92bRjpfRNOYkQbySU5WNWjSs9yrZZ1V4+vlTNTUTbwfMUx+qbEMKgs0awSh+WRu74cCtwX9FyPh5vdqTfVv6mLsTXmByDgmN5s22E6X8PKFQUaMYPlE468vFOT1tZmlAtgR6g0UWozBiqv9gawBZQ5JX8UsEq0++UCjecw6zlbRNmnhqlnD2UJ+4QoS3ybf007ayWMvU7CToQFQ2A8wvyIk20j+e74u6pUudhcPLEPNZO+TFtg/sCdEHE5ol6mHM0LwW8dBsVGCg2VpZpL7+0hYB0sOfOnRvF4Zy0d/nrlE450qQc5wsPOizhHgK0v5Fwzp9+GGneb1f2rio0MKkLJefg4cOH2dUQ1tgfuNFOJoEnT//mbpukpQD/owvw7SdDtBG46snzCN0YkfQ4/ThVpSdOv4AQWviDN6Yc+XXEeSafevdGeKnwq1VXwYMKNwsc+XYpQyYc6sTOzip2XN0GJ7i9kZ2X+NZtgTs3jibF89MwEkvvU8A151VRbcgbDRekeR+RSXqCYQ0MPVEduaunUsXfec8a/j2TRr14eu71tzmoa49Aj7fe3TSJoATLZ3YDnsdeq0hfkQ1jFFp7DHGikTSPuuNsjuOQQ2+HBzKpmrJPgFbBoXKlItxUwWcB6HIJA+MofgNFY0jharvsCl/n2S7LrFcO4AYUb+nN83vQ6TIwMPKqgxQEEliethHHPobpZ0od/VhKLrOk4vcNjLyDAjAXV+7lipfBpMmioEWbDecDJRP9Di0SyVKY3q0/c1xaFRzi9aJjanU9isXoKfSynF/ITwUkArSVwXoMqeJOqLG8OZAspaGR4N9CiNPX3rtr5Ed/yOM9aQ736cdBThrZfNk+GZLTGBolfeM3LMt3fvuyfO93kf5lpFUwD3HVlWgWgW+Gq4w4E9nGpPXQdd2xEhDfj/NtROBDY5mK5f5Gchu1lGtG/sKGGjt7gKN9lDpcJeagXh+d1b4wXl/3Nd+oDN1ePMGI3u6znFNAqJaWORpuKtPQFEnGQzkEbHDwLt0EsI7harhZv8JWfBWjWrpU0itXfrGLkF5JJ+AzT5NgHDuYp3poLPN21TgkvYWRmB4dMaa97G1Td8N3lDO4N7GEm/Ey65u/4Wp5w2s5X39Y/vhX78l7m1F31MiH5Xc+uyzf/u+/nrzKp02r8enXdGaCxcOoLUe5tYoFDLvN5dKUZ7Q4TsBj0KtdN2/cYrVdwaaOYpk+2hlbRy+3lr3SuHJBXP3A5SvA6er4ZacY+2u/SVGW/TmIsVRlepZe5dBiWeia8nEHrhEkprDTYeHOWT40d737lhbGKGMgEg7bWpvHm+d0A8b76kWwONY7VCt4bceIJoKOd2fX7VXoDD7KTxucaJ5GoWzUpgTdfXh98zdcYlDpmp6PYb1arT9j3BeknD/4D167/OA/fE30D10u2RkN7rc7vSGqbZDHND2Zyk+5xJvI7nKUegfn7cpGekgdnYaL5FA65Ffv6XGzy4wY2kP9z9S72jB5kQevV84L1g490PEniGwx9uu3/XhH2EYRUsgUPUdKhXjDHZq1SkEHvhb0VimYN2eW+qZCOwHc4e0UOhfMpW4J+rSL4h95K8gb+SLbELjzbY/PYmHpSHq+0IaspLYXnCOoKDpqXh7K/+VvOFr++NdcLn/sqw7LH3gdJ0Z9w2vd4gS3pypsc5dhr1Pr7hzf/Z+/ebn/Y78v/XTEUpOPKTzk62jVV29c6zjtUWsbMa/1R7mdtUYu3ADYPp6axH6CR9ImCpCdm1A6sMNpNHReg0XO09e0GD3K6g+g9Wdn6ORPvOUbGRWIbOZJFaaFnU634c/G0zEB2goYCP1cxcVuOb11tlzsb4fhnSmPBEuIim1kIGV0YpFQCsFi7B4c7TalyGtMFoOQUYYtioUrD5YFSe3qAMDDGYJGTAaWDoT/5nfvidbnMa6XPCB+kRFvptYjzDSmfOO4Uf6dx24t3/7dfxQYbyOhw9RIc/obmHfLfBCjVb/ySd+Deo2ofvxu46VPv2LsCyA7R8LaOxpKbyj7CJjrKLXXM+AAu+4G1nrAEcsIPoEqc8Dx2elycf786CtDi3pYbt3ysSqARZ3Kox7yrLwNwTFccw1IRRRn6wIWY33zwjb7c5hKZsV3layRUgYCyZVFiXz6FQAC1+tavdCo9Os3ebVcbhhrNv6d13WckU9Dt8+dI9GG9q6sbe11p/eAdZavf8v58i1/7jPLH3jNo/B+nPOx9fw8unyS8xnO56CHtjW2GvEYzbzw3A7yP/Xu12TkonG6Cz9xkMe+pkFX31SerE5Gva54h5JDL6W2f5s0ojX3pZ1zNTR1VWNM+ulupROASlNvTgHpQL049LvF3DdhQLm4rTZoCy5sumykQvlQoX7Gi5pOhgCuPsvLzL5s8Bkt8DDvDAlD8e1zr3it4B2Cwx9hfVuOjh2lTy30aCdnDQhpPNRd8zkuna/VU4mOp7zUpjgNDR06Fr/eOB/4B4dN6L7udYw0h6c4nwWJfN/JAuHmqYAxvgv+e5xdw8cPg3KdGw37XwpKqX0j9s7p3wnhC7w5Gbj1iWy9GTvpgRxOAtbrNuYHTxwXbRXIOdWaipsiR48sbvueHI7iDuG2Vw7nbsaM/DjGW7/mL9Da3+zQs7ZDZrnWeAVET04d6in7dIV3qfQcXm1vtpjS5WqhXHngYG14jBjeRHHu5eL/iOvnl/3ZP7+84l/+15fLxz7bNe75gx9d9r/2wHJ49NHl8DmiMs91ANPI47lnXM5d+BzW5hxGc9egykCeaP8X/9znlu/7d3/T2huH2BBIgTeOu8vb8SLwf/7fehuyQyMlI5UCeWhwdFabvB4YVW96w58uxu79/W9eXvNP/bONio/87nuXBx55V6vt8E3VCQ16YAODbWQaReyTpGVDGDZqyp9+H5h6l1PaahcxdbbscWeEjBZ1Pg949Na3fFOQ/d55A2R05h0Yf1rCXz448tsg650pGW5EijBl9KhMYe2885AR6fePvS2oIA07a6qn+yW31/y3378cv/p1GdrO2SnTNjcex+CPPbrc/rWPcT4o9WX/+ceWwxOPw2bjD32Ge78h4uO/8hH+V/7iZ5Z/+y/9jqIk2wuO6b2oLzzCe5GKtb3z9b/6PV8PhlGKgBx+2u9bL3vVcu+r/rnlZbdetbzinnsz7itu3fui/bLR//6+78xomyh9A8RBA0Dj3VoRH/VlO7vHIvrIn8HCPvZTLetMOlrutvUh+aJkCbsy1J+6QPsajY1dXY3jMT24QaMie7Xmxlw8506/LtsN/eDiUbfWY86M7eVSIGhEE69VQPHnenq3vPa/+v7lFGNvCtHJkbB0U9AG38q3fx3Dw/f5Rx7k/Piyf/LxZf/E50cMhuuj3enyV77tMxm8IwW8yPGlwi1C+wff+SbONy5f/qY/Fa/f/8p/Zrn31W/GwBgVnJvyvpjcW/mZ5x5bfvT+v8687sIrEw1PiTpVqBpB9Qdtpjvq0d31qrsRABjtZhU/U6/tu94Gr2lX+cEziE9YoLEa/ybgl63GJZTH4Gbu5TqMONlnKIiOp2gw4ZRh4uJBuHelThme9327UuExOq68wyXdgdMXdRRfVHIeL2dv/urltW//LyAHFPYqwyHKSxC3/wb+xWXTHnG+UX7+Nx9aLj7/KMb/3PLv/ckfWr7x634dYjeOu424HXfDXwLvv3zX319u77+6rr0gYle5v6h8E2dNhf/Mx/6b5XeefAANOL+qF1nSB9Iilb4EBZa+aXN17JoDe1Q/q/5xk7GIxt0iXLu0T8GCZ3d0zqjgNHi5nHq72Y5kQA5jsZ0aCdY6UZajMxk652L61WAyaShSLvIKd8XQPL+XYp3O4MYDxVbNtJcJ9KNN/fnDH1uee9/PpYTt7A5P+RtpirqT+oTT3fBXvPHNy6u/+s8sr3/bty5f9pUahcY3z+24G373uR03YE88/eUY+i0rb+WS55qC8qLlm2l1y/LYFx5afnc19GZg9bHps6sU1wSUPN1R8+rDOX3ssuI7pPv0DgoVe6wnBT8nsHQd1zXe19jKbUwZ8D4Hhs4oIMqJnjSEYuuKjnnRBeAMJVPnYftExfB+2d0nVSVufTM99CQSu+52IVokxquf+on/czl89rPNWXefDBRtJBQd5ku38p00o29lIv3ek0+PYJ4OeV903oC/FN4N+P2PfGt0h+edVJ7KWLm86Va+kzoKife+T/wAweCuG3Q9TYjY4hMjBwVXRzj2F58wbCt4vyrlZpQtkcdfyLi84Oq8KwJb2dDTD+lIw/sJDO9MbdLw4BJ2THNo0wP1W75YXabT2nnipAOjToWeQ/4a59Diy/z1aSXtvB6uHT7k05wuptq7ViCG3uc/8PPdKJlouPukPbKWJy3yK79EShR1HfuCE1G2fMcGv3Fux91wzqee/fIvjujrSH7hOSPTXSe4H/n0u5Znbn92Fr/GYvokj0EpwYY1k3KlS+1h+JojZPaOliNL+w22IBF/9h+IWq9w0HE0eO92q1NlAlMdjnZ5D4VtYveQTVnv+ep7a8eHZ75IioCrEAqQRyr5GrXiGW3yHOlkNsIJt5sa5vM/RXRz+fViUVEK7pY6wtyJrg1+o0z+3tNPwYdCp/Jt+btP6l4UfuNEvg9/4l8Z+v8/z2eee3T58Gd+ZPSM8eNL39SiQ7WpIqo/b3xUDk2bCBd5Rt5ugAhMw+AykmpgF3vO1W7OWOuXEuU348Ycjeg+EXLihE60TRA6AJNvkmcV18sKoj8e+YzNMZZtHAnW62gEEVuERg2N34foQ9+5ySbujAmQ3zO/9O7ryHROLpLW8s104HM2d98ob3irhuZUkOuyxTXfscFvnNuxlr/wzJe/IEq/9ivfsfzZr/ofl3/hbd+3/Dvf+g3LN/3J7xveoN+dKqsyfuLx90auBarG6uV052MNIGhpxDZudhhvviYVKGDaV7/qCyNaNkg61bFnL9prj2DwR9eZOoeH1Fvf8s04it9EmGjsqKOUVhuZl6BPi2q3O6RXiUgaTViCtWakbG/p6uLXqfZMCw4xdi6iGhihxHBTwKc0jkj/0F/7H5bTL3sNTSnLa03vLr8UfCv/93/yq+CzHvbl5nF3eTt+D/hvPfq25ZUv/9Tyylesa4G1zx7v/5XvWj5w/1+Fb3Z5QarBn3n+seUf/Or3sBpGD8yx3iBxTyMCyGvqyz5c+vw8OMNCbfGZXEQ2ejO2DbPBVxSdwAlU5xDqMbSDbvSpO0W/aN3KIS5ew4zgsd71yvmKqC3yJ1SHsO6j8Yp4v1ElvnOyeMzz3sBi7vH5cFeFGRl369Ejmop3Ql5ePlX6+I/87QxWhG6pUfIi6UtFvmnaeqlzO75UOOdXvPb9GbtyOHfwHnz424Z38pquEU1q+Vd++0fSVhsj6Mgd1+07aOKqB3G1gw82ABWEPqWnjqxTWRpQohoaA86UDt4YfqJb/Elt7zMeM5pwon/cBRI10j+olZC5UqNlUpZ1kpj+NsGYOuvKUzxQxCWyrMtTvRNvyrx18FYivHKoEHzjq9CqL7ye/sSDy1Mfes9Eh/OdqZHr3G26lmflfQN+Xb57vuZMVvjdhF3XvQT85hnOi+BB9xfv/67lqSffeJcMd2R+5vlHl49/7p+Ee7VcYHDWPzbfX7Qr2S4pZTQDG3WrPiaOHeYP2oR52HPWSVZoL85W4mAii/aa9YDEhSsvdPGCfs04efETra5XemfKqD3rjtcc3fDnWnl8ZcwaRyNUjyFtqNEbnSAom2yrQlNXgg41RTzloj7vkw+p/KWrGzMCPPHudy6Hzz9WVFzPyQpqel02fwc+K/QVbl887HDnjbyF6/wN+M1zO74IvtZdw5bloYf/0h2ZXiR99yd/YAxDX/0yoZJpGGoLLjWqzuy/myDzXN4EWA4D7inw6RFlR0H65/3z2lLTHThkyQq0N8x9nTg9isGHtlJm5JrVnEC3QPwmZxOMQoLgKTU/W8KvDeeAQXh6DzjydS7OwFSbB9XTR2xm3rZz075dHksisPDwWvT2E48vX/iw0W2HVRwpcMsq8O7o2dINrxEoT14ZX0ei+Rvlm/CbeC8Jv5EH/oEP/dXl6Sf/4B2ZSLueXssPP/6e5TNPu7Xb+DU6pp0msKQjO2V23Wwdnz3kACE4cbhSP+pXJK7OmA9zYvJFOI3VnBbH8FlHIzsCiA+1i/PVHuTV7wQdjTowmjfCJ9JoDFivBETJgqzcBWMVmQfmjzBEwz5lAm4PFDQ3+EgSqV576pOp3sTW2JykPp1pnWUApIOru/ng4uff965ueFxHieKs0dJcvZVfJL331meQlcxLndvxpcI7b8BXnF/+0F+7lmnS7ZzyLz/2LhAp+KU8CZxMUG0rbVAoeW2sjjUMJsTQas926mSffjDXYXS84ap7cZwej+n07IGMI/i9ckuhZDZk4uV2tuPw9ENmeQ3N3Cc3aiwpr01sTH33lwELk3g/X10ZsN5je+dnIVT4ONHcBBHfTtkBLyOcIkBTO9aS93dMfO54jxc/8dH3TuQ6F96Yk//fT+gZfTdPid8N+1LPBHsh7Jfu++478gCa9E75g7/zj5anb3+WpuiTst/C9CkSes/aZSK5N8jNya7A/UoTMH/3nSRbqMcildHKubfraHQSfEgwkEE3uaTus/rQoHK+j6djQUf+GLR4cijuF/MwgJFl5FIgSj29gY13YIAitSoNOVGq4ZzrJaoPwRXQjBAiizPX4cJkNvxmYTaAElL/IcA8lJfP/uKPLfsvMHfL19Oo2fLr6Vx9947Vq295eQS5tGHmRv7muR0vVfd7wO+7/+2znpDnXekztx8jqt9JHn3qxHa432ujaR/qagxveCe/mF6W0aYVNK9ZDZFnRKg/HEXwSdgG+uhWe4kY9WmjFeJPRadbrfLpl4gw9KAB864ViPNVUwVgGFI4qgFjpMELXcGnRHufoYJW7iOyNQrNoZAY16FdSHSsSRAiHKhCzXQh3Cqub3/mh4oWZ4oX7jtv5wvL4r369JPxuo7KvH7N3yy/FHzLvwTc4Tt+gLa0PfK1/NDn3w3qzKq0SH/qd8gNTSN6+w0ZRK7LRrg/AuTzpbVPf+Bc9NuR4eggV92dNKLJI49dFRNJOEEy7wigysn7O6q+FIhgBU1KGCkgSJLrQYY4AJCG7kOqV03GNlzLnbqCn73uVtrg9ytFXpeDMxstOy7qT5rT76zIScXTO6MlSerD0bl2y9O/+/DyxMPvhx7V0Z30TkSv8C3q7TiwNOuxKvcF53Z8qfC7zg996O3XvO5Onzl/fPnlz/3oaIh+qM7uYpGqP/VAB6knoAom6hDY77bab9fGes/AbUdDmrhz1rdWGMoFezTPe4FOuV3LtYnP4fnbOKNXYNaJBC7RTiMZInDCcXaR4JyK50S8BjbUGCuSfDh9VOnCeZJ8boIBi26yjh46i17qTzgbIB12CFgsTW1s0+Yi8XQR6e+Xz/zyu5bzLzx6Hb0vel7Pl9LxlPnN88VgX+pJW/tL/oP3vb1IHl7YIf5rmfSnP/396KzeLK6p+p4aeP3NBen2++hGXt+ySUnMxdtNKEc/eekI0KF2dI5O1J84Tn8gJpc057EF53dOaPlcQr+NQz5cUX0hj04ZsXmgLx9opUiB+UBrjTdmGfJ+AX7md+s4TGnnPKzvRi8q+rGFyYeKAxkCPjZbG2taPlrGG7sX7kLCzlMLr4tnn1ge/zWjG/zrCH5hOjtWU37VLYdx+rKeH/70X15+4iP/3fI//ez7l//6Jz69fOHZN07ddtzAvT5vwtXWmr///u9R/JX3mlJl+tvPPrB85vmPJf+087YkCbpye1SjCEilgsm3ziH8dIadiyhV5cCuIX1aNptkytRo9ahdwso0QdMVknW+oBdu9lgbWWf5rV/9LTgjojhEDBTpaaxBlNnG1LvX4p0VPcGG7mmD0WaB7c9wmL24nO3ZQs2huJEAzBO0008qXjEHyUIaYDmczwjieMKLBYer03EMIba/Wt76rX9rednLX5PHpwP6m9dTlsWUl+VVZ59c/tCr3rf85mN/ennyuTddw03F+463/cXlTfe+D5p3HRnoRY4Vfh+Gvv9Df/0OPU4NvpV/+JG3L1/YPwo6hRMMt29sqn3Gog/bt1wqm9UJQtFYWnHwbaF2pvdgy2h99LhfsMDIPc5t43yDSMYeZ6QzgvoLF87/w5ukL0syXcJGL3Lo1QB1xDHfXqgg6qnq5zA0lgb09AnTxmnqKR9cJeo9GVhac8XYb5ZB48CKtN1zcOa3TEzBrT3lSCkYV+m2ceiTgk/HQOux3/jFG1HFSdqK2PyN88lnv2L5yKe+Y3mKdIPN3afJXxtao9w8t+Nu+Hr+CoaON8XWDJsslH/pc+9cnvT5dMo66dV+HNeFmBHsnoh9AJSR6y8GURd6Cp/Lqc+ZwyeQkUqa0S0jt0+TSktX6Yle91ox9LRHHsvoLvvxcqvUwtgrosrKJ2bweWNzs5qWgStnXgB9/Hf77wphzg1OB/2zXG96sMpe5IPXBosWRAGyRS2kk1N/wSFivp+FFkTBKG+XnnqJuvMm+qc++pPL7acfm/nR6N7Su/M3y3elr7z1W8iH4P8fzw996HuggeTSUcFrupXf/+Q/Qm5NQxnp7WcRji4c9S6wYw8N+vw6k3m/r45qWlgBVqfnF1zNQKFr6XQTlZ5WKe8oEE11j0NheOdk7RAmcL8PH0yi0maE1lZYqoDFAsPQVopaQOMCypZhrTMCGda3eXp37K/5gwvcarBo73ytEBoe47EiuIehxaFm+8/LvuNN6g5btOwx5eFPqtcXAOuLOlec/SEZtn/4l/7X62i9E7V67E3YVv7i9C1v/D/gAzPP7djKL3VyfPi+/8CoGPqkw9Pysnzg8+9siNUldU9NjWpydggU0dMbG3j17BBNw1bW48jqyLyl2q56rgmo/qwY1ZwUwKIFzsuIZx7l9R1uEGxrqi1napYEVKGvM6pxjOviQeKy5nTIVhDKDcuATGuof+QtHHR+HIBU16Hs4TW6i67bF9O+/8zg8EnH6aA+pqGnU80rHs1pOExSJxmR41pABzpannjs4eV3f+v9E63XJ6hr/npvukhGUWu6lVXwFq3X52bUFyuT3n+f8zTtUdydfXppLstT548tv/DEO8IDxGm7aeouYIrjTVjmrMJ18B2Xq/64QBELrNZ98UFSfGCPiWzxqVrn60itr9ZGpvL2btpqYEC1VRDdZ0YacXGGITJK79pQD9FwCkp5nnAcwTKs82nhh+FmG8eGtFZI986Zf5wWCgHnLmvEG+/0iHVRbt5FmpE+IvlyMejoItXRGR8tMI6W3/z4Ty3nz3zueg5+0RP8LZ299Cm/6d73qokRIsXcdd6Er/mPfIiojgbdI/XSdis/8PQ/sQOsK5BcvaGLcX7BLnKB+9Pes5Tt1NkvGdbPdZzK0JMGfc5Y6MGFrHS78YTe0gflQYMP1fNgp8KMXqRrvVwAzqk8ooTJVU6RhmMlmJi0aJwPxlBAg7zNTlDuWwqmvHxUuMUG5e1nH5zz+8tABBYuq67jMai4rSB9U+Uq1IFtRFyNz0dfEUKhjQjiW88K3ch57tnPLb/9yTW6i9i70u28u8z5B1/9HpnawS8+XwT+K/f9DdohU7RemBrV7/0CczXtLplPHdql0TrEdXCRRt71jn2kDR/UcRLp4rqKtmsaud1HScC358rot3N7v0wlLHpEOVhewwNe8efp0W0kkG81qK06VellH/R0gRScAUhbKukRGC096yCCIHC982W9kZlLrh5Uzo7BSLzy0ACneUt6OkfXlMa/DjKrc0IFXvTgxJHAtsM7CrRXLlURF7T6G7/+k8ttjL7NxbM6Jm9Z9iv8ZvmVL2NxlobWcztuwq7PgX/0Pp8vS7yhI4+1/H89/v2DZ8c5jN/uUiSrknpVYQ16g1YqFpd+lgo3waFD0yHkIZ41GM3Rzp2zMaDVpEY5eWNvaIpNhrKiV6Y4eyGTt4U8bGKJymlkrLUQsIGmdzVc54GjtJkPVOKcQ2KiPKa2V2oNClwmeZ3uyOFNEpv5R2mKX5dpe+KPxbtYpUN6IxgrPaNBnlIGW53y+sxnfpE8ZUUttW7q26tW72vZ9I2vemFUf/wT/9py34f/xvL00296Abw8yv3wfd87NAFlYOms5U8998DyydsPKKKoXQfbZ2prP6tkI5IewNsr1O7ocfS7ZTi8bDz6dQgza9mrIusyFi/vatkJR0cnye6Q+ULW9Oqpjm4QcWSeTc21Phyofd3X/kth+M1IpRpPsUoz0UAXsiRcz/UumAa9di17giCkxZ4gx5si0gWZVIxsMzAFYIRA0nfG9z5u5Hw+OnJ6tRlg4CtsdJSU1LIN/vzX/2fLK85e3ZSQ0dfUKLxTRiq868vu+a3lzV/xv2Xch3/j36QOOHJ88zd8y/KG162OIBNTjr//g0/R1j4PXtFpCr3/+Xffvnxh+WyBbJv6m3x++BiRZenoBMov3jhAf17OsG99Tehme5noyh8mEk9ePeGC0drZvC4ji/iWSXYI0MwtO4kBnUUaOtaJRAp8tZyeMY1Wx4cdUbjNC/KWECGkW0PgoKFJx5OG2MqD/LS3dlbTdIqyde72mN0fXcDQyHdvhxcdyXDyPnidKSEQ16PrRQ8tx9EvHImy0r3/oR9eo/f3OmlO+vRTb1ru++j3Lg9/4t/IOMFJ3/Can4e/9JSDlPMjDN9b/d3pe598x/LE5RhaeRVt9gVUtHO1pKgEV+XMtzq83sXseKG/+sjYFZ7zcf2lLkOblw599bvg0neUQPzKHs3vCCM/BsJSoKTO9eqfg/q5n418wMPhveuf+IxKPdQ5dZ2TvXRyqG2F3kW8sU4dQxDN1HztNK55az2XVtYzpM+Wpx4rPabkq3sUhQEEOM3CB25LAT51MSVqcJ5SIC72DIG+pA8qM7RUlseffHj55GfdWROf8WNNt3Ipmru7PCv5Zfmyu+fx9fzYff/himebO+dTF48v7332XRgtqVyEoxcqWmsAWT+UzxGpkRJelm3hwlPNqNITRz7RoYU5yGAY0mhgIFNlBjs8Suh+2sy8oKyUlQVk2JQWMGDNfE3ZO2AS49j1e9Y0bLQAJg0V6eHTEdPWxYYKUyCQIjQOksGB9yMDOomeVKMICeRNHufZ+NjZYx1J21k/TOaSY5pMsAN2iE+hyrbSNK0jID34yZ9annvenTVQ8OTruZX05jNhW32kVvgf+cq/BwP7KCNSzo9i6MGZs/a1XZaPPPduu4deph8XCkl6dHGRTJIxmoxctdDcjYGCpAfX5a5vGOWMQgLt4JCuVXlLrt1JDOtIQE06mysd6GePOGmSHIgW8PTpABrb0oT0RPvwcvKuBVlspcfYklQjgjr+pyH59P82HP9xc7/JOY2oR3h3xPz1Hi+rHJK8tDoGXwfY9dOCPn6ksIpyyaUydID7aJMd9nHaEXnlKw3F1toK7KcLP84GtzoqLoqjvVjPXDy2/OajH0BfyIuCriP4RdItorcIn6krJnNC/YH7/mb1E9UrPrSf2j+2vOeZd2Awr59tfFhOnTHVEWfCQMJt5fS2SboGjAbLOHiNqO0rrM3sWnfB0I//XqA5tn0HaSerI4HILZmwBTh9VYg6K1qxG3DrPwTumVJEPzmjvfZwOdRUYAM6m9FXj1A496z7CyiH0G58KB04otnMu1Nt+qssHQEP9hen9Gh/+gGkfs1Hb4W+K8uiiyoVKB9fATjsgL/0WyRbTjG0LbTAj70tgNdZ4DT/1U//6PLcc0S3tLcIfqlUxRmZpK9/7c9BhIwn8v3qB/+j4HfvvJm+99l/WKTqpUiEwfsRq2BexxrRxGk68M6dNMKUNKl73vNMmXAgyD3/2u+psTiZhPfM6Qf/VIQ2WInGXSVnKPn2g37gus0eEZU34dxexNW5dtAeaa6nTJ2/tRVBZ9R5qkm9Z0790Hgy7yAxd22mLs93wrItw7G40ui/tjSultCbbMPhb5u164ZQyjGRK0dacUmi51mO/m6fc7UpgwQd4qt0Xq596iwGSlbr4fPI4+vcrY5+j7SIRQbLr389i7MUM+eD9/0ng7fWb+lTh0eX+59/D3yJFHiOSP4vyPBvTVF+9Nj9DnSjDU7wsqDSSi82nqTTkQ+Puo70ylRQm5ooCHfV7W4mTeeSLhRLnBjzxN979YU9mmKpEeJ7Cx5tja4kyKmnDJWlvzwC3evv1mTAxzF0BBh6bYwtun62jThKR+XWde9f9d+I7t2GMsO/eQ/73p+ICpE+df7E08zR68lRpz3Xhv2zvL5Hp600cj782R9fnr1tdEOHfmik60i+u4xYv+9lj0CIwhrVH3P4vo5kce+kP/bU3ybA0ANO1e+GKkPOhuQZAFhwe7IKStmI2jfiAbKvpK2Sp0WY4fkSDtApwCASwSnA3jkaOPlt++0O93cO8z6hQhVwv7stRWm7ctcf8gmgO/sqF43tOJqh8KaDq2qcQGX6uLCWqSNSyegKTkqVHqs39T0uT4Z/CXW3yzmXQiv8iI//t1hZhaitFLMqh531oL45x3nKggcotdfQFjT69GZ536e9K0Y9dTfTu+dqneoP/+EfhuRKk/ShDxLVwCfy7+B96vyB5ZGLh5Lbx4Drqy/F5Sqle/PgOb0oTnI6KqUX6LiNZqgK5iy4KM7G1bSpXPsmAugmLOe4jziMd95qGBZUXTsMjUd/YBI4c8ds9JvNoEmvyGLbFE7j7rHywpkTPj1wqdAPpUZg5oJux1FKeqscttfX9TWgVIqYRHWDbGBJJ84wlXTEIihcfNohS/MxFc1r/XqrGNRDU98TM3yvRxP2avntZx5Yfv2J9xERdBAyL5oaraSz1JfX5fLAB//ja/jd6Tuf+1+QRZGUB97NvabG43rNTH9MlanDX5iqL7wc+TDkttEy86np2h9f6RvHcAGrnJCoXuPYTPWbub77RR4HcviPxmo7a7KBJ/1SV53ike7mWxzOL5wQ7Z9/YOeUfHnKfKOX4lE+J+UuzPY/1kok63l6BcZ4TzRYEu562hRcEISMq/iSMu3plE6iw+t13ToEx19Zig75kyu/Fy59nUt8VpdWyAN8o1Rv1m+uOdDgQ4//5PLsxecmMFRgKeeWcjoKvs75ej0+ft9/el13E/fdt9+xPLF/FB7I5ZwFb+VPDD5nxWw/knTg9sn2rlfgn5EYjl1l2zpUEP1mq7LXEmD9wHGlpeHsXbjAHeLV5f7MVRn42oNyDzLyGv5zbOXr06gWbt5wn00CBTTsyWNA1T7zp1wAeb1mhHE0bMhRMnaY9vWL019IOnEfGG21ebI6kvV+NagmfsFfNiqk1FMfpVCvSemd98URBRjteyZOJmiSQ+Vj8i4NtznepZCXSA89SXSrcCJTwxWlW8r5Cubr176BlTjHgx/E0AbfWrfh+jzZz2Fsf89E2a6fFImwnZCgcq0SIZvyaBzesyMGzow6x11POxrMLiDtqa+dtMHxN2H39HF0AV2q/BzDD4+d/1JMuX/pp/0+e8CXRDOJaLtY1oo28HP4l4pih6EHuAmvNzhnF2Eq3bLfqHe4RjB9SQFt6F2rcIB27Q2sX0iSTsQH7hXzPHelCJSNTCT0VNJ5TRv8dWAIaVTLV+nDjxN1gogCI6uH5vUIxvZjhi6p/PITP9b1953InvTOs+Z2eo6HNfYKG5nAA/cj+/cgtzJ7hQHX+qL8KBejFejIpcTJR+ddzG6kr0cd2tnx7s+TP/hnc+D3bJ6IrnvUUH4vP07quVzG+OrU9vKUEwTJd33NqbDR4JB20WtHrQO3FzQuCUy5ZGySoggN5kF1CCrdiz0FDQHm2TTwaGAn5l6zbwB2WpmoLMrwOr/LJ3LDFQZ27JnFBB2vClpodYZCiSqMeNSxgvdXCupAGwHKk+qn3lGmjiCRA0z0hCnXKO3Bp3+BKKVF0XonNYK/4o/8UG0ewtDX0XwD7wkutX76/B0Rcw50au8fB9GPerSf/n6ri8QMniFmLk85vcdI6jNBGSEa2Jr7uf7ds2q2Lyu+Kx3UTJ+n3v2GWkPT4NAhCgfH70YFiHHY67hnFNBzEPLKKX/yVxfwRk9IpFBgay2vhzWCPQLYylrelAdFgwDDKP5SgnAF2C7JyODdrvzwJhYTGQDBUoD10pFQjqO4tKPKTttexcz85YOwjjTDN22oiZDFob1KBrc/d5s3dFFIyt8tH3jqxxnSvecNGMI30+ef/KeXZ5/6yuXXP7BG9c16znecfz/E6JvfQIWno5J/xEqt7Emo42yEcQFgYzvmW4Stn2fKuNbt7Y8eBWyGCHsYHfMn7niRzlQmjHOb9gTBo0ByIwsAY0SyOKKI62VoU3JQ+Wun3AMZ0S2sGbmcn9PdtRDKF5KeWlNEkEaaNp3o1GQqXO9z+2cYycCDeNYmGNahZaAaAkUVAVDNgMa9NLSn85o4osqBMkTclp2vIwHSsbRIbYgARwqFt5LUmb/re8Lx//78D+SsGVE9y5b0Uw9+5/Kzf+8TlW/CxfvC4bHlkcMD8b/yJz59eaNdft6edJTrtJ08kZ9Cl4IWwUwOifkz7PZD+TgdIRyOnc81S4btR/2JTO/61V69kHqmdANKOnOKMwpKoiGvHJVndBs70KFS+0gKvWLMXaE8xCik9bbgctfLf3HvgQM9uWHWlfZEr4bUUP5eaLmo0bY7Lc7VmFh+zgnQazs2ejqA0UEevnqk/wGmI586XHoUEQC8/HM4tVIXBzxDlTg6wfBRYOkot3jS/dT+oeVjt38BI4qnMbeU80XLy/J3L//WFLw+HiaI4hRkTo/Q+Ua+6RayOZqtBlDM7U7htB+4kzLcHBTCvTUuXhdP3YwDb3g491tBmcs2aTXS0icDszqx1F18pk6wejgzQ9mrqPDIL0zFNux+ds+F2dlY2cpoIaGy629OL4sYk6mf4UPvMWL9XwsbRyLXPHT51s0Cqen1vGqnh9GBqnDfUj6MZr+RYnR0WYqypd8irOtavXSj7/4yuOYJSxdl/rZnPxsV31F48tPmfU+/q5W1kdvip5TzRco/fXjH8tjlo4gGnHmu1TM0/bVBnwsrIkn7X1L6czj1+a+p265rL4lU2/snqI1cnCM2cHXgeIqhb9MP++2P4Pnf5Qo7ET36sFHfYZcuNNyxEzZjKvQROJgdNWyBnXB9f25ROUAbHdKH5CDN0+REI33BU3zLeQVK1IPcsNMtTY3i0Sb1bW8hgtW+jHgFtJ1Ci682OZz78kJSh6iZh/xlBrzOxZpI1CvbySnl8KU7Tlh7c3qJeeZrb5y1I6sM8aO9D+UDP0WGp44eI7rfW7AWwZwOHp5b2VP6//jwTlKjxz6PPjLROVAQxDGjXEp0fJuI95Vw6ksj2F9VM/2sgNbEmfZXffvj9NYsWIceGNKsvSn8hNOfoS//Fa8+OghLXwmnXhvNA6AD70YWqNmOSDRVRCAUMJz3cUbllCNCzgbR90NVmF2FqEz0YeBtgVA1aXibYR36ecUn8tQjrAax3gjoH/NUio4Cyn5beMlcwYF1T9hTugAcTTy6UihEobE6goryD/K9rfruix9fnuT6O6PefUqY42eufmQytFMHKsqzlU3Pj3E6RtLG3itlUoGUDhGma3/Kxm5TSuT8ZHhlqHa94grlnJX8+e018nmbRIoEK4FYBl/2J/GC3jhETJuDRtlUPkJzIMvdPl77t9bt/HF2506f+vSulfm+zeC1WcYxigfHa0MN1b/Jq3C0p8cc+UW2WdpXn3eBO17mE6soxHa8Et0PaTrsmqWlP2YvLQGavU5oWLJeH7sq0ICiHN+aVpuhUrRNsZ47bVt7r5tv773GvOS6+X0Z+2ZEb+2fWB5bfvbyXcmqY525w8fZ981cZziCKe+6bWs/1M3wVHqakfZzVRTcZYxHeNBCrn4QHnn0lu16fItW5ZVN/80ivkKVGv1UyCCgCVRrP69kjo54MNXVsMfRqbqC8lrvuXP+0cOamx3rJZE36qHUrQsmG/XwARgRpAOtLInoS3/YliFktAeO8wm55ihHDDtJXVEHSl6/4jq39M/vKor6hiPa29XhNasE/yFHQwjxcq7ou2VUSIfrckeGZPL/taRMlKmwVZaf3f8o189zV8zz5vHBy3dDx7kSXPRwnk4UJ2HHYAC8EdIU4hoCeNqAv3xEjQYZv6Ehi667sxRtua72+9rS9dRhhiekeFGEtHM6qTSpqGsea0Y+XuqpR/3i1hm0raK+GyvaAn1fnqOD8ndoKJfOq9r40DCIIHc84shIs7w+TYIsy22UMKtsJbPheNlcd1N0FKBO7ysC86w1wp1P1lW6Zal6zLw0Jb3Tzrr6xa4rnrygWafwdZ3BMp3b3db3Y8wJbWQ1WsLXHeypBHn7S4rvOvydoXPjMKr/8fJj8VHeZDXPOSMqBsG2/VB+fNQWw1iEwLSj4qbwHVcVjmNTPr6FspUDFPd+tkgmw8fg92tHpFbI2f9AMU8XBg28+Jw60s50aTvN9PyFtKc8XzKAhnQwqqNmI7YkNvg84WhRGMKtDK4u/HUPZx8v9imjsGkoSQ6U3XxK6mWT7eya5RCoM/r8knkM8kjpS9NYBSo6w0152k09jaUlbRiK72+hzw7aJat25IGFjfTyg52l2Or/9PZyxBDf5kO0pIyimXP9tcDfWD6+3Hf1nmDb8Y7936Fv0GQES8F6xsrfyAAa3F3ZWZ0fljOMWNQ6oMkHOu5gOZ3t+9cc6ll0Hra7dSj+gkxzNOnWxo6Yxos6d7vOvfzl8BJLt+qkj9rDp2M80jtvp6ky4Q1+MlpY4aODORmh8K6ucd3/1rdWX2DOdY9bH5eSOf2zb2LqfA6TfNp+LgHA0PMQwMulvrtNkwSFxAhmvRa0SgHIn9Ousu2H99STZ+iThkPa3OVacVBWJoatcjUi0eZyf2u5OtdoTjPSUnaVHCfaHS0/f8VwTjR7PHL10PKJo18dGaGvES5rp2y0gah10pCvWVTJpZJ3p8BjHi6OaeevOnvjyNaNDl6m8Wqso51wy0UibZy3o1FfbTN1Yp45cOy8KSLMMcb+ymnWUUrnKqYV9ngFb2iBK82Z2gTOCDUyINOfeut3MNLSSbww4zrUqlwFEd/blbR1SFAQH2hwiHUBN1afTtGgDs885Zym8wzPkY4MVW0vegeJl4J7zL/S2XFglJ3rezAiLEzGXOelBsSrzdS0aXUuhp2zyjQ2MhrGXoL443AVvZYnffXlvcsrj167/MbxxzGy9MBXbGQ/5Vq1Bz7pnz+PIYeD/4hH30aH4wAzpwJwTSNR8pWVLzHAmUzp6dnxcnFb5wVG2UVn+9+JqXy2p1oA15LuVTS/OzlzjS64piueR21rHwnMAW76B4eXCz7/3cHrrNOze7QedZd0TGRfdsLOyHPnn4PwHjtDTI+kMxneej5GQgRxdhtFeAvzmOF5no227Ofgt6J2LsFpNJrNXUxkHw2DsBlT2jZCfp87F9s/A3e3ykoXIjlacnPac8+aTbeUXYWRzIfezetzy+PLI8uDE33w80sQDn023/uMvE7volGvhk3fSQtB3NWIyuepoiRtH3VkeMyu19RL0/KBYXgrN89zGVfe3jpaGoPSQBH+EIImkqcLw/B5S9sIPWZd4NTpLtr8hylwcNZeixheizJA/neLapMcLyJRh+DoSwMOw7y2bxv2rJen3uaYrAAWUdQJikhhsFQJo1iJzbc5swb0w7ezYWZZchxUTEQMn6uuRytWj37nw2t5eHvTJ2GVi7KddPEU4+o4dJhobmBx5TwQF0v0gtwqL9f0rVzFQEmBuBbWYj56JJJd8menHHUqoMhoei/S0cHTyyvaGvVFocbn6L/ClcfTNQqp3/z00FBtqgGbkc5FFXgGnTy1EHXyElsG7catYuhDOsi0OmCP6Znv+FFb/8WIiGM9ROuKjDFgt/REtPN6SXgytF7vNwIxowQ1mNW8tENl/0aOYgpEtSmfU5+Ziro5HTPkeZ+6a3ausCFlAA8xRyMkGh64UWCtZ0O8OeA6a4dRCBmptT+gYAB8eYHhP9abb5VK/4wAFz46vmmjljC350oVwasEHYyC/E9Qrr8V46aLtBU78a2nSzJCphadMnCKxLH6pYRI2I/hZVkdTb8oADRvdNr+1I1KwB2OBK64nVKlTWOtkS7ItW8OfGwnPXEYvXJgDScjLJaqUKwe0/en16kXKYHvw8tzwbzlSp225l0+aByHPleVXj7N3ja0MxAp7U5IZWIbptLoCaBJvz2iuMEymrz0nhAtIYP0ADG3UuBtW/HtA87KslkPl557BMrk95udt9qXlo6y2B0wVWbDtWJZp3Kj7DqCds73wcFWFOqdB4+Yx32G27+ibrcPnLp5IU3looemEjOQyLrb6CgEBnAMtfHjTK7p0eiRtAJ5Ky7gIZ4LZNse7EuROfKZ3kKAocV1eI4BropoXUFAOyzOXLE2SpP4lh5Bcd/OOkI6N+gMDb/g4jXn650d6fsFAGcacdx4t8MzUE9Z78tT81rLerjV8FYTpOJ6Wt4ZAbYFXuA4nFHrqKJj+RfNbpgIVCc2F7dVp1MN+YLSRnSkH+kxIsSxj76RK5n0OpTSnnjtTUdM/2JS5VVWcZQdBS9PWJfYAeSZ6EIrJsB6Ts8q6WlonYM6HaA97ZW/d/TlXwfBP2m0kQaf6UT5jmew8AVu9uVw8TXbxI5K6gl7SG+F2aVGt+wBBXTQXS9ZNNT4dLuGpOydnDmINLI+JOBoqEeLM8eWjjA6gnfCEhkmpojEcIcQIsHMKCxSOPWBwPa0VKVomBmW+nlrcmvgpEyjJaiG5t3IYUvEonX52EuPPm3fFYsV+pOndIwedSowurx81Ec+w1vYOLDTnP3TqTSCDu2SPQjK6QqEhjlt/VIGxwZHFtsDpk/+CZ40LzFu8lnH4YJWUn4RJJGSwUbyksqGq3xVUoVz0oEc1nrRrYtymMHbPwiuk5ZwiI1RdqwSk5WOB9cQCU4n4sdKEMZeSye4IF4qVkNdMocZADa23ofkfdqjOR9udtprbn3rLDyEIBFbuIaXb7TavZPeiI4YwLMCopI2FxsdzKUtFMFSjuhSTyTp1c6zqllqp2eOLaOoZLY99I2MFCdZ8A4+EYI36QBG9HSJTxBOKDciJJdw+2PfjAbacwqDG3nmW9dE9WcczBkos0eH8v6iO3T1bW3paO1l8M7v2lmXpWxParfBcovb8fqEIcja+lBrq20Hl56hkxj9EG26oi+Rb+hDwJcrCDA1J24U9JL97AbZ0ULetqa6gwdOoHIqOP/6FOTUz/47p/XUXjhOUi76fME3L5SvIwRMjWPnYMETedPe4Sw6RIlGUa72C8IDLq/oDg1NbKknMqEjLthFXvRkhhLnv7Hko/E4pQeOdfbZ6cn5UjPPKIUc8pAOI9GG37zLOkfpLqB57OUUMANGnxitYyJ4GxDnwJW9/kUv1TDYTvn0ngmrItyKKVX23oOgsZEchc+ZbaRAHm4KrT+44gaONBr4/Lm51ktp0RhBbR8NJ32VRl68EyoF68ntaEXX4U/mdkp92VinGsEaDr0Och1g3kOJVHQ/3rrC3eFD6BzPg3r9BGuwyFQ+cMjbRsyiB0ONp49Shrr+P/T7wqLy25Tpq+jF0d3M0C2kccZlkiJ3uA89EkFQ2t7sGBqeHv1QIMpp3i/6xKYNl5Nu1wp3Xs4ZqCni1tTsdnoMzN5YgP05I1cwaJoCThrKfKzOa1aeO/fXgs+dysFh5MRIMu8mgkLo6bTCe+88ISJhPlDIsAHHEUAvI38MXgHj0xmu0MVWec6rlsSDiGm6c6VqzapgaY8qgbKYkY9supNDhI9BJVHr5ehsvc8LnhI4mSjz8FSZSjXy+zjV8dmt8JJbPie0h7arbWVyEXTSom6MUFTx8urAxZI/9VW0R8MUxV3eE39fM/+X09vTrdd3Wwu/2TqRCj+Vj1PkfsoJb42/OXKjdXV5S3jehu6OGHgDmeNOCm90OqOw9fSNyhbM6EHHnXNVvOE+19JmaUze1ekpClDnloeN2Pj+Kcx52YmGQE6fT9Y/hOcnrAF6GK/IpUx70+YvRwwFpAybYKqnVTeda8imvV8qL/JtblsVekHnbeScvMrlYk7c8XqffrENcx58DoyR6rDhE8M4pM5dIed7Ke9wVr9QP3NrIPF9wdM/Vyvjaj5COEKRCgfoDw3q4g2e+lBplj2daqJLLZdqdkTM1hqMiK7ufdavVX5Gk9wEWqt5SDl6GKVnyuCIudEWyYcJWOPNCAN+wwq0XCOx+peb9lOTENDjAGEhZfRJToU2kG6rTAT1pcdQCSHwCOWeqBRmnat0vY9XDV2FnLvAoVoueQwn6R68lCquStPw0JxfKeDlpYp3opjrne/kIVcXMV1S2EwncjfKyKesQ/m/WS5pd8e3WwxJzZbe6Cmq3BP2QKbmT0cRjl3PsCkkkS1c+tVIlyjx+2YaQTmR366ES/kYp7e/vlRNi0nKLkpnj4DD77ajhH69oqbg9FOf6kvYkaqSTMeZzsURP6dV9OWhLP5Y3oxaAqiTIGX3sFonQFF99Xx6IyK0wHPaxZmOmY5mbjW2FPQCxVmyWR2rhs7RuIURFba34zKVCSabFurMTjg802HF7K8TpJEG6Zo4moGyINhJBOEiKhIH9LRiMkmThYz71bzcOdKJ3eeZX0YWIUFBB99rajTv6/QUyXXEyDr6IJOXTbb3BNq3H5HRyGo0EBY9TpCU+9o5mwN1COBUXBzgZb1DLbhukUrXRVfTFK+um9FVP14Hco/t4UCtrKlPR6JwejPpfG/kAqSf4nQ/wCMc6ALnPQBVRFJUU6eUNUbO7kHgVJUZ14kLH+OxgcKrPR9H1dfIqmVxU7aMJWWs8NLDs5aiWgZJ/axTQKNAbS2L4qUCae2Hpp4ryCdEQ85dkZNy3xZxuKJxNwo0hIbV+2QJbrSjgNdCPzaWvDC3ntIFo8P2cx5KpRw+MJBuwh95zzFOO18S33m9sc6rHN2WpYF4Gkn4y9yNCl85kJfOHdCm4rioTXd5MWfdAt/2pO6hOyT75IplF3aDpyPNmkf47FnMb4d30D6JJI08vgwCdekxqQL4nlf/c0pZx4MK86w9j8AJAl8wIqAgynVlNYgdkVaLJJWMnO2LawArwCvSG3L0fNtKZ2jZLs83jZZRRjOI1z3a9pNacBs8ssohLcfuyhylNALHGHTeUlHuJundKkpI82M6okTUGfnSsl7ZZKAsJwyZ+Da0nIMBex5OScGVhviOzzqIo4VOCI7P/5sR1q1FKHuBooDWd8bfWOYVrkDf9B3dYM7BqyE81AE2yLGBtwntLdd1fVB7jmnDh0EgkxWu7D3NUnuRbp7ox2ev5ZMRGaNPHJYyNgIYYVaSeuEeIsK7MdeCQwVydh0KvbwitMlYBxbUnGPM6wwguHS3rKVXpavc+Y0wTXi7AHZ6kJ661GmiRo+ceo/B3edISshQaD3nzocf15cLq0hElzmfaHQgtY1i+Oz1+YVmduraHGzGLhd8yW97PvwixegokZqfHYB71uvWOXlp0g4PE609d8mtdA2aA4szv4HZ6tu+A3P+brG64XlJZxUw9bHDHtIp6EZd4foKJk97IGzlC/nwXHxvOhSXsUv3o+E9pFi/4djh02uAuND4dN/POGQoCBx8MKEjhHJGnwrVo0TL22KGV/brxAqj10MvTxN3We55BXFtHiX1VCb4h+Ws/e8CA0RA4LgTh9WNJGVQBEVllNABPGN58B48Gc7j2zP3eRr1/hi+clAK5m6fs5yBpd87FCijK3kvRftF5pFgHpqRD/JraPvoeuBlOMXu+XmCxBeisbIefupZPgWGkYUenNNnF0zZpk8uDsXrxwG7BKZwBhx9NLrIl85lEumtt1WtawXvLiNwj9YdFGoH39OiHzx34/QWj6Pn1RwtPNWiveHdwuuCaKecH4hb3oYOUaT1ymbnrLQpQ9z7tUZCbbyFJl6ogzvefLU8/4yRoNfqpTNKGFl7NwnoPJ8JrYe6vrggcr0j5rysYifSUKBR67jNyjpGwLIKbWcxM/w2rdjNoV4PuHqRkKPDLODAbKfQdLskTTW2gqbX6l6HP981M3XSNuXlb5luqnT6k+bUAyep7Mu+Sku65jF08oBz5NqAijsy64xrH/2SYLqMYUf5G+nMYfPvAjWFKItIZw7pjdL903IZBgSvH0wFrsKGjkofBTREuCCzBmH7Dpb1raqFmuIu5DWmarVJCyHat8AD2gt+4un1Dq9+L3ob7iWvfA7tty589mok6flrF8OKgRwnt+jDuhdslB/d42pgZJWV0WtZJUurkqJb4y5EujASaGtUgetnkaYMCs80Yyd2KNx758kFVJ7qSL49WdPi62p5udMSOGCveES+I5h0i0IDZvp91G+qO1NTXx30sEd9sZMc/QqkNGCmXMnGMfiMRgrKMaNJlEZ2yjT1qk35ZcrweO6ixbnIFuEtx7eos41GA5B57TjnrApxBqIu7LWTHgyceLmeLzEixkQ4aYoCjvmHpnOZEBgrmPNVw73CJoi8KLFgaQ1IXvquNtsjgM7eDWbb8aqeVVRrM9qqK3fN5k6ajg28Tq5yOEzIw7ZCFVaQskPDH+E5RvHRqxU1bVggr8M+aBdEsch+1bcvA6IVL2PtpZMTs1NO5N56EuuEduokLt1JE97vnaKUAsrVNOXkBUWe/vaKsnmoOwv20ZfXVtrKgMlGs2qsPf6Q7TlkIgAV7oEpAMz05gPDlV+8U2MuBrxFp8Ek4JxsVPmQvgB/isOF0QxdwFiUOJI0ZNlhpPPlryBfHTFQqiVTo3m6wzDq6pY8/DSSdJOR/AV8Wk+QP6hQUuXQ5WZksA0cMM4l9T4sSFX81ahfIphgoJHRQLrqbQ6JSQ9gNM3Q7pCT+JWd0ZGreI9GJzoomg8RNsT7AIVwjstjF7PQsQPo1eE0mvLNsckyEjRy4jTxXPl2SgNaPZWitaSPoVCfYgJDBgZB7/JLLNXUd9cEtEZfPsRhfichNeZOUMLSWRl0/1rC5G2Q8Bb8m0WWw92pUi8qBiOK6WJphxKOGR1M58FE/RvFONdyjA9zQu/S60uMHP3VgOKXMTGnVyEHLkYeIFHRZYv1ysepwcazqebDpzYbM8hfsZg8MJ+7AFRh21rB4TB8RDCq/cqPLlXvoWlyilN3UDaa9nu0St4HOcYhlVTZRmfNk3bPodbE8bdfgJxjHFv6QsClz5pT3TqqubU7LaE35Ncy9fqahYiNi+YKfinBxXPBMv3vppFo0FDuE3fwZOddGKsvt10bPsYrTW2BvFxqNe+RP5wzdLojlpUHwU5dQdAhZ38xrLyVKI4LroZvVr4unox4O33J9XyKd3g8wzAs4hRsRgQNoMGgQXriXuDqbC5QjCZxKPBhXmek2jLve9yiWnEcqndGGrKOoRWGlN67mnb28VGh28gOckputUzb1pWqDVrOw6erbEZVc6wvqosg3hO+HPSJD/hBr4DTmSGT80OgNnNaLsWB5O0P/kqvKxDsUnSv57RDlgwLMmV/QsNRobXDinfsqt8NGqPfKNc+sCV4B+nWGStp9zhX5nRLSRbXSf6d4u4UhdcXPFnlMvSqHMs6bN/fro0coKFi2ovO0pPvCwHGHKT85Z/4oO9zpV1QuJdhCAasBYn74xjiHME1ktfaM38Nr17RW93eOqL4NlbKGRl6ITv5cFfFcmj4C7/mweGNnOzAYTCKd3VLGvZr5j5P14seOqT78Lrjid+3kjfHYd0WHn6rszkKanRFXPG8TB28ioG7s6eTMETL5oyRNnr2NcTB95sm7egdOz0NXB9XB/WPsnfzGk2Tgcrg9HFPpg2P/Rkdm3FfAsOSocweAjvy4p52elufRGqsqJZgNx1PzhMopfMyYuPJoUm6JAHBkxzAwTP6rHPt6DDQZR3vzO4cDZ7y5AjSl7/PQtdZfZA6RM/5uu9snhPl2TKAfUhW8759CTZGBDJUO7TL1/pzRzrXFT6jDQ+8oGfOpnntTH1Gb6W03nVjugDXW6aOVOJZHnxTf09OvKFhO/sRHjLkturP1b5twI98eNgDhOh15TPtffeN2CFan9uBZSrdIt4e6sg9azwXKeDWb4nRa4dCIlZYRgKkUmrJEa5opAp8jEN0bYySW9glmMqnDsWduMiRI3XR5DX8aM800L/C28Ht+1/Q3q67fRmNIrcovLxNVBm5DPOubhtFaAtBo0H4Jq8UdE37oD78G2jhR33Phvp0ZAtOnxNLOJR/THxApGkIHJ8qtV18BOicyJpYZKeGlLY+rKDlvLEhXw8T++GzZn3pMejgTxBM2VuvffN146MhxY6uSqEqfHHMk8b4xolQrsFcP1xfRp7hZe5xv/xlXgty6EkYpPmFtx2x7VAjL0NfFIcXHyoMpO7FXqB8hniV5L6m+rFbttv79IlCapCRiPJ6uugq8lmAucArGoZ8XxwEJwekPBF2tFw8j1K4TLxQZuiHz3F6izygvpdG2W9w+rvo0wr5veHjcX6BQetmnTSyT5Bf65+dMoSuSpVGtxp1fJjIXvl99tyRpzl+RBtC8O0nwVhd+wMHJ1yyuXrXx9rpI3WoPb1HQ8h3ZPe8dUZUwuuMUfGkfkKvRer0qcnfgAl/9DQd4BBGh7zb5Y5bi28M40+/N+LQ3+jtXV16EemD+rqYPEpHYXlvBwwcQgwHZOhmRx6hQTEWQvFZ+6udPxYiHehSbl1qSkBFGtrDig8Ob7TXjpffcZ4nSZxbWbwxpzkTqfTt+W8j1jthpo0AOgqyXNw2r6PZXjGVTXz7Qen28O16VrunTOpYhDmtKcH5OZdtVoZHn5TZmRBUabTWcZ7FocdhQx1d4OFG7ywIvZR1seetZDU5cPW6f37DsT1OQPVtZJfYbdY3/g+2V1QeoKy426kukb+5viwf4DCcDp5lnNefN1R+YJgbIAWj5RQrvEL3a3lngxnvvQRTEIlRnI+xy7TdvrcUYK65J8vgiXYuOL1c8q/7VZTbjG5QuA8+UiEk7Xt4wairQD0WiJ1jjk++rlPKsU+SwsHbms4M1OCkLu7EIYoYIRTgrImL6AHP724no6TXJ0ekYrS4clWB0jx1Ugzud6XnCmWH8bx8WVVFgxnqowtgt9xDNK1lo8ooEt5p/4DzqQ5nft7qR78KoRyNjI5GFOY/tRlt0w+41NtGdPUyowE4jiLl5SD9I9YEA9Oe/vSHVzC1/TNv+86rvpmgQBIGeHm0T6E+2aiUknHbrn8JEK8OcCigCl8NNvz8UG1Uazw7QMldOf+W2RvxxmL8xKWtQ5wjS805IFlHJxYFcFq5yiegl0VLOJGdFDaQMbYfKt/va7Gmr714YVIfvu1wxqaaakQz5zH8Lx2S3at2c4L+6GSMZ/GYp2CoM5pqPfLVN0cDpwX01bdAV7n89SUvUUURT4fQxSCSvCg1Oq2X1rT7386Ja/dckDrwZGRHBjG7vscVlEd6fDoCONaOYwSSIY394DhypR33RKEBiBhKxXRDHeHa4PARIDAcIHTNVCQdWrayZYiRkLjuyiWQZRBoQYAwMELvoh9gve6jbw7a1zci1Z0lUazQShlHWgOyTs+9dXSmiDbtEHU+mJv5lJbVDsW1c4RTwTZaGZTlo2Jl+o5Si6x1ftbQG84YWrzB3VJX0l7DV447TFU8znHwKVijceVnv890KHnJ1hZrhNfekUelZjgwpO9USp391njlV33UfeFqyRR8m+0Ohx46jWHIVFqvjmoIF6+h/e8KzXrwskGmdtJdAFKCXszyenhRokKxRjxVqIsZcfMiYpui7tz2pzg5GkA3XnIXNQUd8C/g3120rCRfzrB0RHGU/3K5fXWbPHjuB8fbaWPOVtiwsF3BY86tAvoijW0+lJg0tujoGllsyupsog0xkXPmWmWd+vpJvVyKfHlGZWR07HKOT39Aq5+owuEHL70ot1GcLpVvpa/8OTprAnmB2lNRtoknn+D11xarXJsMV1fL8v8AmnKMZSIy9QcAAAAASUVORK5CYII=;fontColor=#050505;" parent="1" vertex="1">
                    <mxGeometry x="702.79" y="532.5" width="35.14" height="36" as="geometry"/>
                </mxCell>
                <mxCell id="8" style="edgeStyle=none;html=1;strokeColor=#0d0d0d;fontFamily=Times New Roman;fontColor=#050505;" parent="1" source="10" target="22" edge="1">
                    <mxGeometry relative="1" as="geometry"/>
                </mxCell>
                <mxCell id="9" style="edgeStyle=none;html=1;entryX=0.5;entryY=-0.111;entryDx=0;entryDy=0;entryPerimeter=0;strokeColor=#0d0d0d;fontFamily=Times New Roman;fontColor=#050505;" parent="1" source="10" target="11" edge="1">
                    <mxGeometry relative="1" as="geometry"/>
                </mxCell>
                <mxCell id="10" value="Back-End" style="rounded=0;whiteSpace=wrap;html=1;shadow=0;labelBackgroundColor=none;strokeColor=#141612;fontFamily=Times New Roman;fontColor=#050505;fillColor=none;dashed=1;verticalAlign=middle;align=right;" parent="1" vertex="1">
                    <mxGeometry x="659.07" y="395" width="132.43" height="77" as="geometry"/>
                </mxCell>
                <mxCell id="11" value="Front-End" style="rounded=0;whiteSpace=wrap;html=1;shadow=0;labelBackgroundColor=none;strokeColor=#141612;fontFamily=Times New Roman;fontColor=#050505;fillColor=none;dashed=1;align=right;" parent="1" vertex="1">
                    <mxGeometry x="656.79" y="518.5" width="137" height="72" as="geometry"/>
                </mxCell>
                <mxCell id="12" value="ECR" style="sketch=0;points=[[0,0,0],[0.25,0,0],[0.5,0,0],[0.75,0,0],[1,0,0],[0,1,0],[0.25,1,0],[0.5,1,0],[0.75,1,0],[1,1,0],[0,0.25,0],[0,0.5,0],[0,0.75,0],[1,0.25,0],[1,0.5,0],[1,0.75,0]];outlineConnect=0;fontColor=#232F3E;gradientColor=#F78E04;gradientDirection=north;fillColor=#D05C17;strokeColor=#ffffff;dashed=0;verticalLabelPosition=bottom;verticalAlign=top;align=center;html=1;fontSize=12;fontStyle=0;aspect=fixed;shape=mxgraph.aws4.resourceIcon;resIcon=mxgraph.aws4.ecr;shadow=0;labelBackgroundColor=none;fontFamily=Times New Roman;" parent="1" vertex="1">
                    <mxGeometry x="384" y="327" width="78" height="78" as="geometry"/>
                </mxCell>
                <mxCell id="13" style="edgeStyle=none;html=1;strokeColor=#0d0d0d;fontFamily=Times New Roman;fontColor=#050505;" parent="1" source="17" edge="1">
                    <mxGeometry relative="1" as="geometry">
                        <mxPoint x="420.012939453125" y="277.1770477294922" as="targetPoint"/>
                    </mxGeometry>
                </mxCell>
                <mxCell id="14" style="edgeStyle=none;html=1;entryX=0;entryY=0.5;entryDx=0;entryDy=0;strokeColor=#0d0d0d;fontFamily=Times New Roman;fontColor=#050505;" parent="1" source="17" target="10" edge="1">
                    <mxGeometry relative="1" as="geometry"/>
                </mxCell>
                <mxCell id="15" style="edgeStyle=none;html=1;strokeColor=#0d0d0d;fontFamily=Times New Roman;fontColor=#050505;" parent="1" source="17" edge="1">
                    <mxGeometry relative="1" as="geometry">
                        <mxPoint x="291" y="297.84373474121094" as="targetPoint"/>
                    </mxGeometry>
                </mxCell>
                <mxCell id="16" style="edgeStyle=none;html=1;strokeColor=#0d0d0d;fontFamily=Times New Roman;fontColor=#050505;" parent="1" source="17" edge="1">
                    <mxGeometry relative="1" as="geometry">
                        <mxPoint x="537.512939453125" y="418.6770477294922" as="targetPoint"/>
                    </mxGeometry>
                </mxCell>
                <mxCell id="17" value="CloudWatch" style="sketch=0;points=[[0,0,0],[0.25,0,0],[0.5,0,0],[0.75,0,0],[1,0,0],[0,1,0],[0.25,1,0],[0.5,1,0],[0.75,1,0],[1,1,0],[0,0.25,0],[0,0.5,0],[0,0.75,0],[1,0.25,0],[1,0.5,0],[1,0.75,0]];points=[[0,0,0],[0.25,0,0],[0.5,0,0],[0.75,0,0],[1,0,0],[0,1,0],[0.25,1,0],[0.5,1,0],[0.75,1,0],[1,1,0],[0,0.25,0],[0,0.5,0],[0,0.75,0],[1,0.25,0],[1,0.5,0],[1,0.75,0]];outlineConnect=0;fontColor=#232F3E;gradientColor=#F34482;gradientDirection=north;fillColor=#BC1356;strokeColor=#ffffff;dashed=0;verticalLabelPosition=bottom;verticalAlign=top;align=center;html=1;fontSize=12;fontStyle=0;aspect=fixed;shape=mxgraph.aws4.resourceIcon;resIcon=mxgraph.aws4.cloudwatch_2;shadow=0;labelBackgroundColor=none;fontFamily=Times New Roman;" parent="1" vertex="1">
                    <mxGeometry x="252" y="476" width="78" height="78" as="geometry"/>
                </mxCell>
                <mxCell id="18" value="Amazon SQS" style="sketch=0;points=[[0,0,0],[0.25,0,0],[0.5,0,0],[0.75,0,0],[1,0,0],[0,1,0],[0.25,1,0],[0.5,1,0],[0.75,1,0],[1,1,0],[0,0.25,0],[0,0.5,0],[0,0.75,0],[1,0.25,0],[1,0.5,0],[1,0.75,0]];outlineConnect=0;fontColor=#232F3E;gradientColor=#FF4F8B;gradientDirection=north;fillColor=#BC1356;strokeColor=#ffffff;dashed=0;verticalLabelPosition=bottom;verticalAlign=top;align=center;html=1;fontSize=12;fontStyle=0;aspect=fixed;shape=mxgraph.aws4.resourceIcon;resIcon=mxgraph.aws4.sqs;shadow=0;labelBackgroundColor=none;fontFamily=Times New Roman;" parent="1" vertex="1">
                    <mxGeometry x="251" y="193" width="79" height="79" as="geometry"/>
                </mxCell>
                <mxCell id="19" style="edgeStyle=none;html=1;entryX=1;entryY=1;entryDx=0;entryDy=0;entryPerimeter=0;strokeColor=#0d0d0d;fontFamily=Times New Roman;fontColor=#050505;" parent="1" source="21" target="12" edge="1">
                    <mxGeometry relative="1" as="geometry"/>
                </mxCell>
                <mxCell id="20" style="edgeStyle=none;html=1;entryX=1;entryY=1;entryDx=0;entryDy=0;entryPerimeter=0;strokeColor=#0d0d0d;fontFamily=Times New Roman;fontColor=#050505;" parent="1" source="21" target="17" edge="1">
                    <mxGeometry relative="1" as="geometry"/>
                </mxCell>
                <mxCell id="21" value="Developer" style="sketch=0;aspect=fixed;html=1;points=[];align=center;image;fontSize=12;image=img/lib/mscae/Person.svg;shadow=0;labelBackgroundColor=none;strokeColor=#141612;fontFamily=Times New Roman;fontColor=#050505;fillColor=none;" parent="1" vertex="1">
                    <mxGeometry x="444.99999999999994" y="650.5" width="37" height="50" as="geometry"/>
                </mxCell>
                <mxCell id="22" value="Postgres" style="sketch=0;points=[[0,0,0],[0.25,0,0],[0.5,0,0],[0.75,0,0],[1,0,0],[0,1,0],[0.25,1,0],[0.5,1,0],[0.75,1,0],[1,1,0],[0,0.25,0],[0,0.5,0],[0,0.75,0],[1,0.25,0],[1,0.5,0],[1,0.75,0]];outlineConnect=0;fontColor=#232F3E;gradientColor=#4D72F3;gradientDirection=north;fillColor=#3334B9;strokeColor=#ffffff;dashed=0;verticalLabelPosition=bottom;verticalAlign=top;align=center;html=1;fontSize=12;fontStyle=0;aspect=fixed;shape=mxgraph.aws4.resourceIcon;resIcon=mxgraph.aws4.database;shadow=0;labelBackgroundColor=none;fontFamily=Times New Roman;" parent="1" vertex="1">
                    <mxGeometry x="692.7900000000001" y="219" width="65" height="65" as="geometry"/>
                </mxCell>
                <mxCell id="23" style="edgeStyle=none;html=1;strokeColor=#0d0d0d;fontFamily=Times New Roman;fontColor=#050505;" parent="1" source="24" edge="1">
                    <mxGeometry relative="1" as="geometry">
                        <mxPoint x="331.6795654296875" y="235" as="targetPoint"/>
                    </mxGeometry>
                </mxCell>
                <mxCell id="24" value="Function" style="sketch=0;points=[[0,0,0],[0.25,0,0],[0.5,0,0],[0.75,0,0],[1,0,0],[0,1,0],[0.25,1,0],[0.5,1,0],[0.75,1,0],[1,1,0],[0,0.25,0],[0,0.5,0],[0,0.75,0],[1,0.25,0],[1,0.5,0],[1,0.75,0]];outlineConnect=0;fontColor=#232F3E;gradientColor=#F78E04;gradientDirection=north;fillColor=#D05C17;strokeColor=#ffffff;dashed=0;verticalLabelPosition=bottom;verticalAlign=top;align=center;html=1;fontSize=12;fontStyle=0;aspect=fixed;shape=mxgraph.aws4.resourceIcon;resIcon=mxgraph.aws4.lambda;shadow=0;labelBackgroundColor=none;fontFamily=Times New Roman;" parent="1" vertex="1">
                    <mxGeometry x="389" y="196" width="78" height="78" as="geometry"/>
                </mxCell>
                <mxCell id="25" style="edgeStyle=none;html=1;strokeColor=#0d0d0d;fontFamily=Times New Roman;fontColor=#050505;" parent="1" source="27" edge="1">
                    <mxGeometry relative="1" as="geometry">
                        <mxPoint x="466.6795654296875" y="368" as="targetPoint"/>
                    </mxGeometry>
                </mxCell>
                <mxCell id="26" style="edgeStyle=none;html=1;strokeColor=#0d0d0d;fontFamily=Times New Roman;fontColor=#050505;" parent="1" source="27" edge="1">
                    <mxGeometry relative="1" as="geometry">
                        <mxPoint x="655.012939453125" y="414.51039123535156" as="targetPoint"/>
                    </mxGeometry>
                </mxCell>
                <mxCell id="27" value="ECS" style="sketch=0;points=[[0,0,0],[0.25,0,0],[0.5,0,0],[0.75,0,0],[1,0,0],[0,1,0],[0.25,1,0],[0.5,1,0],[0.75,1,0],[1,1,0],[0,0.25,0],[0,0.5,0],[0,0.75,0],[1,0.25,0],[1,0.5,0],[1,0.75,0]];outlineConnect=0;fontColor=#232F3E;gradientColor=#F78E04;gradientDirection=north;fillColor=#D05C17;strokeColor=#ffffff;dashed=0;verticalLabelPosition=bottom;verticalAlign=top;align=center;html=1;fontSize=12;fontStyle=0;aspect=fixed;shape=mxgraph.aws4.resourceIcon;resIcon=mxgraph.aws4.ecs;shadow=0;labelBackgroundColor=none;fontFamily=Times New Roman;" parent="1" vertex="1">
                    <mxGeometry x="518" y="329" width="78" height="78" as="geometry"/>
                </mxCell>
                <mxCell id="28" value="Architecture" style="text;strokeColor=none;align=center;fillColor=none;html=1;verticalAlign=middle;whiteSpace=wrap;rounded=0;fontSize=38;fontColor=#100f0f;" vertex="1" parent="1">
                    <mxGeometry x="49" y="42" width="209" height="69" as="geometry"/>
                </mxCell>
            </root>
        </mxGraphModel>
    </diagram>
</mxfile>